# AST/ASF file generated using VICON BodyLanguage
# -----------------------------------------------
:version 1.10
:name VICON
:units
  mass 1.0
  length 0.45
  angle deg
:documentation
   .ast/.asf automatically generated from VICON data using
   VICON BodyBuilder and BodyLanguage model FoxedUp or BRILLIANT.MOD
:root
   order TX TY TZ RX RY RZ
   axis XYZ
   position 0 0 0  
   orientation 0 0 0 
:bonedata
  begin
     id 1 
     name lhipjoint
     direction 0.578396 -0.714046 0.394458 
     length 2.21935 
     axis 0 0 0  XYZ
  end
  begin
     id 2 
     name lfemur
     direction 0.34202 -0.939693 0  
     length 6.39105  
     axis 0 0 20  XYZ
    dof rx ry rz
    limits (-160.0 20.0)
           (-70.0 70.0)
           (-60.0 70.0)
  end
  begin
     id 3 
     name ltibia
     direction 0.34202 -0.939693 0   
     length 6.99037   
     axis 0 0 20   XYZ
    dof rx
    limits (-10.0 170.0)
  end
  begin
     id 4 
     name lfoot
     direction 0.0582372 -0.160005 0.985397   
     length 2.06111   
     axis -90 7.62852e-016 20   XYZ
    dof rx rz
    limits (-45.0 90.0)
           (-70.0 20.0)
  end
  begin
     id 5 
     name ltoes
     direction 1.53556e-011 -4.21875e-011 1   
     length 1.04074   
     axis -90 7.62852e-016 20   XYZ
    dof rx
    limits (-90.0 20.0)
  end
  begin
     id 6 
     name rhipjoint
     direction -0.558179 -0.726269 0.40121   
     length 2.182  
     axis 0 0 0  XYZ 
  end
  begin
     id 7 
     name rfemur
     direction -0.34202 -0.939693 0   
     length 6.51172   
     axis 0 0 -20   XYZ
    dof rx ry rz
    limits (-160.0 20.0)
           (-70.0 70.0)
           (-70.0 60.0)
  end
  begin
     id 8 
     name rtibia
     direction -0.34202 -0.939693 0   
     length 7.02607   
     axis 0 0 -20   XYZ
    dof rx
    limits (-10.0 170.0)
 end
 begin
     id 9 
     name rfoot
     direction -0.0788856 -0.216737 0.973038   
     length 1.96734  
     axis -90 -7.62852e-016 -20   XYZ
    dof rx rz
    limits (-45.0 90.0)
           (-20.0 70.0)
  end
  begin
     id 10 
     name rtoes
     direction -1.53567e-011 -4.21783e-011 1   
     length 0.990825   
     axis -90 -7.62852e-016 -20   XYZ
    dof rx
    limits (-90.0 20.0)
  end
  begin
     id 11 
     name lowerback
     direction 0.00668177 0.999323 -0.0361741   
     length 1.7655   
     axis 0 0 0   XYZ
    dof rx ry rz
    limits (-20.0 45.0)
           (-30.0 30.0)
           (-30.0 30.0)
  end
  begin
     id 12 
     name upperback
     direction -0.00222086 0.99851 0.0545167   
     length 1.74912   
     axis 0 0 0   XYZ
    dof rx ry rz
    limits (-20.0 45.0)
           (-30.0 30.0)
           (-30.0 30.0)
  end
  begin
     id 13 
     name thorax
     direction -0.00733971 0.997496 0.0703443   
     length 1.75715   
     axis 0 0 0   XYZ
    dof rx ry rz
    limits (-20.0 45.0)
           (-30.0 30.0)
           (-30.0 30.0)
  end
  begin
     id 14 
     name lowerneck
     direction 0.0279797 0.994795 0.0979765   
     length 1.46939   
     axis 0 0 0   XYZ
    dof rx ry rz
    limits (-20.0 45.0)
           (-30.0 30.0)
           (-30.0 30.0)
  end
  begin
     id 15 
     name upperneck
     direction 0.00339187 0.976776 -0.214238   
     length 1.48018   
     axis 0 0 0   XYZ
    dof rx ry rz
    limits (-20.0 45.0)
           (-30.0 30.0)
           (-30.0 30.0)
  end
  begin
     id 16
     name head
     direction -0.00263506 0.996603 -0.0823096  
     length 1.4976  
     axis 0 0 0   XYZ
    dof rx ry rz
    limits (-20.0 45.0)
           (-30.0 30.0)
           (-30.0 30.0)
  end
  begin
     id 17 
     name lclavicle
     direction 0.894044 0.44508 -0.0508781  
     length 3.03024  
     axis 0 0 0   XYZ
    dof ry rz
    limits (-20.0 10.0)
           (0.0 20.0)
  end
  begin
     id 18 
     name lhumerus
     direction 1 -4.48961e-011 -2.39475e-018   
     length 4.4661   
     axis 180 -30 -90   XYZ
    dof rx ry rz
    limits (-60.0 90.0)
           (-90.0 90.0)
           (-90.0 90.0)
  end
  begin
     id 19
     name lradius
     direction 1 -4.48961e-011 9.29328e-028   
     length 3.41414   
     axis 180 -30 -90   XYZ
    dof rx
    limits (-10.0 170.0)
  end
  begin
     id 20
     name lwrist
     direction 1 -4.48985e-011 1.53461e-026   
     length 1.70707   
     axis -1.09697e-014 90 90   XYZ
    dof ry
    limits (-180.0 0.0)
 end
  begin
     id 21 
     name lhand
     direction 1 -4.48966e-011 3.06923e-026   
     length 0.328298   
     axis -1.95843e-014 90 90   XYZ
    dof rx rz
    limits (-90.0 90.0)
           (-45.0 45.0)
  end
  begin
     id 22 
     name lfingers
     direction 1 -4.48893e-011 6.13845e-026   
     length 0.264682   
     axis -3.91686e-014 90 90   XYZ
    dof rx
    limits (0.0 90.0)
  end
  begin
     id 23
     name lthumb
     direction 0.707107 -6.34876e-011 0.707107   
     length 0.380032   
     axis -90 45 2.85299e-015   XYZ
    dof rx rz
    limits (-45.0 45.0)
           (-45.0 45.0)
  end
  begin
     id 24 
     name rclavicle
     direction -0.936955 0.347862 -0.0332887   
     length 3.26927  
     axis 0 0 0   XYZ 
    dof ry rz
    limits (-10.0 20.0)
           (-20.0 0.0)
  end
  begin
     id 25 
     name rhumerus
     direction -1 -4.4896e-011 1.78637e-018  
     length 4.40431   
     axis 180 30 90   XYZ
    dof rx ry rz
    limits (-90.0 60.0)
           (-90.0 90.0)
           (-90.0 90.0)
  end
  begin
     id 26 
     name rradius
     direction -1 -4.48955e-011 9.34036e-027   
     length 3.04688   
     axis 180 30 90   XYZ
    dof rx
    limits (-10.0 170.0)
  end
  begin
     id 27 
     name rwrist
     direction -1 -4.49011e-011 1.53461e-026   
     length 1.52344   
     axis -1.09697e-014 -90 -90   XYZ
    dof ry
    limits (-180.0 0.0)
  end
  begin
     id 28
     name rhand
     direction -1 -4.48834e-011 3.06923e-026   
     length 0.500489   
     axis -1.95843e-014 -90 -90   XYZ
    dof rx rz
    limits (-90.0 90.0)
           (-45.0 45.0)
  end
  begin
     id 29
     name rfingers
     direction -1 -4.48967e-011 6.13845e-026   
     length 0.403507   
     axis -3.91686e-014 -90 -90   XYZ
    dof rx
    limits (0.0 90.0)
  end
  begin
     id 30
     name rthumb
     direction -0.707107 -6.34826e-011 0.707107   
     length 0.579358   
     axis -90 -45 -2.85299e-015   XYZ
    dof rx rz
    limits (-45.0 45.0)
           (-45.0 45.0)
  end
:hierarchy
  begin
    root lhipjoint rhipjoint lowerback
    lhipjoint lfemur
    lfemur ltibia
    ltibia lfoot
    lfoot ltoes
    rhipjoint rfemur
    rfemur rtibia
    rtibia rfoot
    rfoot rtoes
    lowerback upperback
    upperback thorax
    thorax lowerneck lclavicle rclavicle
    lowerneck upperneck
    upperneck head
    lclavicle lhumerus
    lhumerus lradius
    lradius lwrist
    lwrist lhand lthumb
    lhand lfingers
    rclavicle rhumerus
    rhumerus rradius
    rradius rwrist
    rwrist rhand rthumb
    rhand rfingers
  end

#!OML:ASF H:\IndianDance\Patient Classification 1\Patient 1\Session 1\dancer.ASF
:FULLY-SPECIFIED
:DEGREES
451
root 17.6598 14.4935 8.33855 -170.86 9.07882 -175.63
lowerback 9.9283 -2.20663 0.676988
upperback -6.74648 -2.37396 2.28961
thorax -12.901 -0.949877 2.60546
lowerneck -6.32513 -16.8502 -10.963
upperneck 6.29006 -22.945 14.7434
head 5.90389 -10.7707 4.12267
rclavicle -4.99361e-014 -3.23274e-014
rhumerus 5.65876 6.20154 -17.4224
rradius 20.0549
rwrist 6.91203
rhand 8.08125 6.04277
rfingers 7.12502
rthumb 33.3043 -20.8927
lclavicle -4.99361e-014 -3.23274e-014
lhumerus 0.523812 -49.0807 -3.95392
lradius 95.2782
lwrist 16.6691
lhand -14.5691 -9.51385
lfingers 7.12502
lthumb 11.5804 20.1462
rfemur -37.2312 -12.9228 24.2028
rtibia 56.8376
rfoot -23.2122 -2.92132
rtoes 8.88083
lfemur -34.8118 30.4193 -12.2582
ltibia 90.8281
lfoot -19.6323 2.88073
ltoes -15.5264
452
root 17.6776 14.4956 8.32814 -170.677 9.237 -175.147
lowerback 9.85178 -2.26887 1.11426
upperback -6.7371 -2.34431 2.56187
thorax -12.8539 -0.953518 2.64778
lowerneck -6.37572 -16.8204 -10.9242
upperneck 6.48125 -22.9094 14.5904
head 5.94305 -10.7538 4.06961
rclavicle 7.90091e-016 -1.29086e-014
rhumerus 5.93077 5.95031 -17.3824
rradius 20.064
rwrist 7.21554
rhand 8.01599 6.08333
rfingers 7.12502
rthumb 33.2422 -20.8655
lclavicle 7.90091e-016 -1.29086e-014
lhumerus 1.13868 -49.8678 -3.84355
lradius 98.003
lwrist 16.458
lhand -15.1548 -9.77784
lfingers 7.12502
lthumb 11.0155 19.9131
rfemur -37.17 -12.6243 24.794
rtibia 56.6361
rfoot -23.1486 -2.99253
rtoes 8.53965
lfemur -35.0215 31.6144 -13.1664
ltibia 92.8284
lfoot -19.4258 2.61677
ltoes -16.5266
453
root 17.6929 14.4968 8.31626 -170.47 9.39316 -174.642
lowerback 9.74232 -2.34655 1.58638
upperback -6.73367 -2.32825 2.83683
thorax -12.7952 -0.965018 2.67466
lowerneck -6.44472 -16.7822 -10.872
upperneck 6.70131 -22.8623 14.4133
head 5.98836 -10.7306 4.0074
rclavicle 3.83748e-015 1.84373e-014
rhumerus 6.23084 5.72997 -17.37
rradius 20.0666
rwrist 7.54003
rhand 7.91973 6.08723
rfingers 7.12502
rthumb 33.1507 -20.8811
lclavicle 3.83748e-015 1.84373e-014
lhumerus 1.73221 -50.6184 -3.71774
lradius 100.647
lwrist 16.2297
lhand -15.6591 -9.95465
lfingers 7.12502
lthumb 10.529 19.7616
rfemur -37.1302 -12.3835 25.407
rtibia 56.4341
rfoot -23.0798 -3.0131
rtoes 8.10942
lfemur -35.1736 32.7564 -14.1573
ltibia 94.5295
lfoot -19.0963 2.28385
ltoes -17.7895
454
root 17.7065 14.4979 8.30274 -170.25 9.5284 -174.155
lowerback 9.6011 -2.44415 2.04889
upperback -6.73628 -2.34169 3.10426
thorax -12.7238 -0.988996 2.70314
lowerneck -6.51419 -16.732 -10.8042
upperneck 6.93016 -22.7988 14.2229
head 6.03125 -10.6995 3.94168
rclavicle -6.88603e-015 -1.02374e-014
rhumerus 6.55798 5.47511 -17.4097
rradius 20.0557
rwrist 7.91864
rhand 7.80146 6.07381
rfingers 7.12502
rthumb 33.0382 -20.9183
lclavicle -6.88603e-015 -1.02374e-014
lhumerus 2.30724 -51.3372 -3.58159
lradius 103.175
lwrist 15.9736
lhand -16.1457 -10.1329
lfingers 7.12502
lthumb 10.0596 19.6066
rfemur -37.1093 -12.1987 25.9953
rtibia 56.2405
rfoot -23.0146 -2.9824
rtoes 7.74045
lfemur -35.2732 33.7861 -15.2721
ltibia 95.9056
lfoot -18.6339 1.8352
ltoes -19.1214
455
root 17.719 14.4988 8.28718 -170.032 9.63691 -173.725
lowerback 9.42197 -2.55711 2.45733
upperback -6.73916 -2.38887 3.35667
thorax -12.6274 -1.0249 2.74996
lowerneck -6.57978 -16.6772 -10.7462
upperneck 7.15971 -22.7289 14.0417
head 6.07559 -10.6652 3.88098
rclavicle -3.30169e-015 -2.80286e-014
rhumerus 6.90235 5.21199 -17.4827
rradius 20.0402
rwrist 8.28984
rhand 7.6683 6.05194
rfingers 7.12502
rthumb 32.9116 -20.9669
lclavicle -3.30169e-015 -2.80286e-014
lhumerus 2.87339 -52.0185 -3.43628
lradius 105.566
lwrist 15.6884
lhand -16.6135 -10.332
lfingers 7.12502
lthumb 9.60824 19.4288
rfemur -37.1055 -12.0956 26.5181
rtibia 56.0659
rfoot -22.9628 -2.88638
rtoes 7.43342
lfemur -35.3169 34.6641 -16.5352
ltibia 96.9455
lfoot -18.0453 1.17095
ltoes -20.1417
456
root 17.731 14.5 8.26947 -169.824 9.71241 -173.366
lowerback 9.21085 -2.68686 2.7927
upperback -6.74227 -2.47611 3.59067
thorax -12.5085 -1.07479 2.82321
lowerneck -6.63994 -16.6204 -10.7015
upperneck 7.39267 -22.6566 13.8702
head 6.12286 -10.6297 3.82524
rclavicle 7.87715e-014 1.11319e-014
rhumerus 7.26228 4.88948 -17.6118
rradius 20.0131
rwrist 8.69794
rhand 7.54762 6.03815
rfingers 7.12502
rthumb 32.7968 -21.0047
lclavicle 7.87715e-014 1.11319e-014
lhumerus 3.42683 -52.6657 -3.2877
lradius 107.801
lwrist 15.3779
lhand -17.0602 -10.5424
lfingers 7.12502
lthumb 9.17724 19.2379
rfemur -37.1111 -12.0654 26.9611
rtibia 55.9153
rfoot -22.9301 -2.74034
rtoes 7.22867
lfemur -35.299 35.369 -17.9372
ltibia 97.641
lfoot -17.3156 0.242768
ltoes -20.7168
457
root 17.7428 14.5016 8.24954 -169.636 9.75231 -173.09
lowerback 8.96964 -2.83339 3.03986
upperback -6.74433 -2.6069 3.8038
thorax -12.3654 -1.1398 2.92879
lowerneck -6.70151 -16.5626 -10.6639
upperneck 7.63603 -22.5825 13.6965
head 6.1742 -10.5932 3.76945
rclavicle -1.78316e-014 -6.12257e-014
rhumerus 7.63322 4.56516 -17.7799
rradius 19.983
rwrist 9.08498
rhand 7.44963 6.02852
rfingers 7.12502
rthumb 32.7036 -21.0338
lclavicle -1.78316e-014 -6.12257e-014
lhumerus 3.97573 -53.2752 -3.15067
lradius 109.868
lwrist 15.0597
lhand -17.4544 -10.7659
lfingers 7.12502
lthumb 8.79682 19.0308
rfemur -37.121 -12.1071 27.3109
rtibia 55.7944
rfoot -22.9196 -2.56252
rtoes 7.0753
lfemur -35.2124 35.8894 -19.4678
ltibia 97.9932
lfoot -16.4247 -0.962573
ltoes -20.6423
